<?xml version="1.0" encoding="UTF-8"?>
<svg id="Calque_1" xmlns="http://www.w3.org/2000/svg" xmlns:xlink="http://www.w3.org/1999/xlink" version="1.1" viewBox="0 0 155.4 31">
  <!-- Generator: Adobe Illustrator 29.1.0, SVG Export Plug-In . SVG Version: 2.1.0 Build 142)  -->
  <defs>
    <style>
      .st0 {
        fill: none;
      }

      .st1 {
        fill: #e3000b;
      }

      .st2 {
        clip-path: url(#clippath);
      }
    </style>
    <clipPath id="clippath">
      <rect class="st0" y="0" width="155.4" height="31"/>
    </clipPath>
  </defs>
  <g class="st2">
    <g id="Logo-Isuzu">
      <path id="Tracé_793" class="st1" d="M67.7,30.9c.6,0,3.9,0,6.6-.2,2.5,0,4.8-1.3,6.2-3.4,1.5-2.3,1.5-6.6,1.5-10,0-3.8,0-14.7,0-15.6s-.3-1.5-1.3-1.5-3.7,0-4.6,0h-1.7c-1,0-1.3.5-1.3,1.5v1c0,1.2,0,12.2,0,14.7v1.1c0,2.4-.3,4.7-3.2,5-1.1.2-2.2.2-3.4.2-1.1,0-2.3,0-3.4-.2-2.9-.4-3.1-2.7-3.1-5v-1.1c0-2.6,0-13.6,0-14.7v-1c0-1-.3-1.5-1.3-1.5h-1.7c-.9,0-3.6,0-4.6,0s-1.3.5-1.3,1.5c0,1,0,11.9,0,15.6,0,3.4,0,7.7,1.5,10,1.3,2.1,3.6,3.4,6.1,3.4,2.7.2,6,.2,6.7.2h2ZM8.9,29.5c0,1.1-.3,1.5-1.2,1.5s-5.5,0-6.4,0S0,30.7,0,29.7,0,2.6,0,1.6.4.2,1.3.2c.9,0,5.4,0,6.6,0,.9,0,1.1.6,1.1,1.7,0,1.5,0,26.6,0,27.6h0ZM133.7,19c0,2.4.5,4.1,2.9,4.5,2.2.2,4.4.3,6.5,0,1.8-.2,3.2-1.1,3.3-3.5,0-2,.1-2.4.1-4.5,0-5.2,0-12.8,0-13.5v-.3c0-1.2.4-1.6,1.3-1.6h.5c1,0,4.8,0,5.7,0s1.3.5,1.3,1.6v.4c0,1.1,0,12.6,0,16,0,1.7-.2,5.7-1.3,8.2-1,2.4-3.2,4-5.8,4.2-5,.5-10.1.6-15.1.2-3-.2-4.9-1-6.6-3-1.8-2.4-1.9-6.5-1.9-11.1,0-10.3,0-13.3,0-14.3v-.6c0-1.2.4-1.6,1.3-1.6h.5c1,0,5,0,5.9,0s1.3.5,1.3,1.6,0,14.4,0,17.3h0ZM88.9.1c.9,0,17,0,22,0,4.5,0,6.1.8,7.3,2.7,1.4,2.1,1.5,4.9.4,7.1-1.1,1.8-2.6,3.3-4.6,4.3-1.8,1.1-4.9,2.7-8,4.2-4.1,2.1-7.8,3.9-8.4,4.3-.8.5-.5,1.3.1,1.3,1.7,0,18.6-.2,19.5-.2s1.2.4,1.2,1.5,0,3.2,0,4.1c0,1.1-.3,1.4-1.2,1.4-1,0-19,0-20.3,0-2.8,0-5.8,0-7.5-1-1.9-1.2-3-3.2-2.9-5.4,0-4.2,2.1-5.6,5.8-7.5,4-2.1,16-8.1,16.7-8.5.9-.5.6-1.4-.2-1.4-.6,0-18.9.1-19.8.1s-1.5-.2-1.5-1.2,0-3.5,0-4.6.4-1.3,1.3-1.3h0ZM41.6,16c-4-2-15.9-6.3-17.4-7.2-.8-.4-.7-1.5.3-1.5,1.7,0,19.1,0,20,0s1.3-.4,1.3-1.5,0-3.3,0-4.3c0-1-.3-1.3-1.1-1.3s-20.7,0-20.7,0c-5.6,0-7,.9-8.6,3.1-2.1,2.9-1.4,6.8-.2,8.8,1.3,2.2,3.5,3.2,7,4.7,4.2,1.6,14.2,5.7,14.2,5.7.9.5.8,1.6-.3,1.6,0,0-19.1-.2-20-.2s-1.3.5-1.4,1.5,0,2.9,0,3.9.3,1.6,1.2,1.7c.9,0,17.3,0,22.3,0,3.8,0,7.5-1.4,8.3-6.3.5-4.2-1.1-6.9-4.9-8.7"/>
    </g>
  </g>
</svg>