<?xml version="1.0" encoding="UTF-8"?>
<svg id="Calque_1" xmlns="http://www.w3.org/2000/svg" version="1.1" viewBox="0 0 77.9 81.8">
  <!-- Generator: Adobe Illustrator 29.1.0, SVG Export Plug-In . SVG Version: 2.1.0 Build 142)  -->
  <defs>
    <style>
      .st0 {
        fill: #fefdfd;
      }

      .st1 {
        fill: #cd2a19;
      }

      .st2 {
        fill: #ce3024;
      }

      .st3 {
        fill: #ce2f22;
      }
    </style>
  </defs>
  <path class="st0" d="M47.8,1.5c34.5,10.4,42.6,62.6,6.6,76.9C3.7,98.4-21.7,24.6,23.5,3.2c2.7-1.3,5.2-2.4,9.2-3s6.4-.4,9.6.1,4.4.7,5.6,1.1Z"/>
  <path class="st1" d="M36.8,7.5c10.1-.9,26.9,8.1,31.1,17.7,7.4,16.9-12.5,6.8-19,6.2s-11.7-.7-17.1-.3c-8.1.6-27.8,10.4-23-3.7,3.8-11.2,16.8-18.9,28-19.9Z"/>
  <path class="st3" d="M67.3,48.7c5.1,7.8-13.1,26.2-17.2,21.9-1.9-12.7,5.3-19.9,17.2-21.9Z"/>
  <path class="st2" d="M26.4,70.7c-10.4-1.4-18.5-11.5-17.2-21.9,11.9,2,19.1,9.2,17.2,21.9Z"/>
</svg>