<?xml version="1.0" encoding="UTF-8"?>
<svg id="Calque_1" xmlns="http://www.w3.org/2000/svg" xmlns:xlink="http://www.w3.org/1999/xlink" version="1.1" viewBox="0 0 35.9 34.7">
  <!-- Generator: Adobe Illustrator 29.1.0, SVG Export Plug-In . SVG Version: 2.1.0 Build 142)  -->
  <defs>
    <style>
      .st0 {
        fill: #eab73e;
      }

      .st1 {
        fill: #333;
      }

      .st2 {
        clip-path: url(#clippath);
      }
    </style>
    <clipPath id="clippath">
      <path id="yellowStar1" data-name="yellowStar" class="st0" d="M13,10.2c-.4.8-1.1,1.3-1.9,1.4L0,13.3l8,8c.6.6.9,1.4.7,2.3l-1.9,11.2,9.9-5.3c.8-.4,1.7-.4,2.4,0l9.9,5.3-1.9-11.2c-.1-.8.1-1.7.7-2.3l8-8-11.1-1.6c-.9,0-1.6-.6-1.9-1.4L18,0l-4.9,10.2Z"/>
    </clipPath>
  </defs>
  <path id="yellowStar" class="st0" d="M13,10.2c-.4.8-1.1,1.3-1.9,1.4L0,13.3l8,8c.6.6.9,1.4.7,2.3l-1.9,11.2,9.9-5.3c.8-.4,1.7-.4,2.4,0l9.9,5.3-1.9-11.2c-.1-.8.1-1.7.7-2.3l8-8-11.1-1.6c-.9,0-1.6-.6-1.9-1.4L18,0l-4.9,10.2Z"/>
  <g class="st2">
    <rect class="st1" x="23.8" y="7.2" width="13.5" height="29.8"/>
  </g>
</svg>